<svg version="1.1" id="Layer_1" xmlns="http://www.w3.org/2000/svg" xmlns:xlink="http://www.w3.org/1999/xlink" x="0px" y="0px"
	 width="100%" viewBox="0 0 475 361" enable-background="new 0 0 475 361" xml:space="preserve">
<path fill="#FEC015" opacity="1.000000" stroke="none" 
	d="
M343.000000,362.000000 
	C228.666687,362.000000 114.833359,362.000000 1.000031,362.000000 
	C1.000020,241.666687 1.000020,121.333389 1.000010,1.000063 
	C159.333282,1.000042 317.666565,1.000042 475.999878,1.000021 
	C475.999939,121.333275 475.999939,241.666550 475.999969,361.999908 
	C431.833344,362.000000 387.666656,362.000000 343.000000,362.000000 
M23.010391,140.556625 
	C22.894964,140.552841 22.779535,140.549072 22.664106,140.545288 
	C22.729177,140.738495 22.794247,140.931702 22.876726,141.890533 
	C22.943295,142.216675 22.969353,142.557602 23.082174,142.866882 
	C39.923241,189.033310 56.797958,235.187515 73.555733,281.384155 
	C74.666199,284.445435 76.113953,284.828827 79.125023,284.337372 
	C130.067093,276.022614 181.035934,267.872101 231.990295,259.632446 
	C295.275452,249.398773 358.551697,239.110031 421.834900,228.864258 
	C429.267090,227.660965 429.390747,227.722351 429.724854,220.365402 
	C431.160492,188.753372 432.501129,157.137054 433.919861,125.524254 
	C434.823303,105.393448 435.896210,85.269783 436.700165,65.135208 
	C436.999146,57.647297 436.748474,50.137432 436.748474,42.342548 
	C435.867096,43.042484 435.198456,43.526028 434.582581,44.069408 
	C411.093689,64.793243 387.539246,85.443840 364.195984,106.330452 
	C360.408844,109.719032 357.772552,110.476379 353.104156,107.491463 
	C318.573669,85.413086 283.827667,63.671692 249.144760,41.831787 
	C239.173904,35.553101 229.187729,29.298712 218.798264,22.775578 
	C184.839294,75.724518 151.156036,128.243561 117.339531,180.970352 
	C98.678055,172.891708 80.529877,164.966751 62.323891,157.176926 
	C49.325226,151.615143 36.248947,146.234756 23.010391,140.556625 
M179.381561,303.912292 
	C177.756134,304.275208 176.128998,304.630615 174.505539,305.002106 
	C142.849716,312.245514 111.187225,319.460327 79.559502,326.824371 
	C77.950546,327.199005 75.398659,328.853882 75.392159,329.925446 
	C75.346069,337.517548 75.850235,345.113037 76.190193,352.966095 
	C78.155403,352.864319 79.482590,352.923737 80.764046,352.709564 
	C95.050278,350.321564 109.328857,347.887787 123.610649,345.473145 
	C168.100342,337.951202 212.592758,330.445374 257.079987,322.908752 
	C313.550842,313.341980 370.011292,303.713623 426.500977,294.259460 
	C430.066925,293.662659 431.182678,292.428436 431.125488,288.860474 
	C430.925201,276.366608 431.061951,263.867523 431.025146,251.370529 
	C431.020996,249.965500 430.726532,248.561325 430.480072,246.395187 
	C346.656708,265.599060 263.426025,284.667175 179.381561,303.912292 
z"/>
<path fill="#E23B00" opacity="1.000000" stroke="none" 
	d="
M23.207306,140.773422 
	C36.248947,146.234756 49.325226,151.615143 62.323891,157.176926 
	C80.529877,164.966751 98.678055,172.891708 117.339531,180.970352 
	C151.156036,128.243561 184.839294,75.724518 218.798264,22.775578 
	C229.187729,29.298712 239.173904,35.553101 249.144760,41.831787 
	C283.827667,63.671692 318.573669,85.413086 353.104156,107.491463 
	C357.772552,110.476379 360.408844,109.719032 364.195984,106.330452 
	C387.539246,85.443840 411.093689,64.793243 434.582581,44.069408 
	C435.198456,43.526028 435.867096,43.042484 436.748474,42.342548 
	C436.748474,50.137432 436.999146,57.647297 436.700165,65.135208 
	C435.896210,85.269783 434.823303,105.393448 433.919861,125.524254 
	C432.501129,157.137054 431.160492,188.753372 429.724854,220.365402 
	C429.390747,227.722351 429.267090,227.660965 421.834900,228.864258 
	C358.551697,239.110031 295.275452,249.398773 231.990295,259.632446 
	C181.035934,267.872101 130.067093,276.022614 79.125023,284.337372 
	C76.113953,284.828827 74.666199,284.445435 73.555733,281.384155 
	C56.797958,235.187515 39.923241,189.033310 23.082174,142.866882 
	C22.969353,142.557602 22.943295,142.216675 22.955917,141.420746 
	C23.035110,140.950943 23.207304,140.773422 23.207306,140.773422 
M190.449432,114.975983 
	C179.635483,127.570358 173.724701,142.273132 173.248459,158.747131 
	C171.915848,204.843491 210.485413,239.252884 256.190491,233.132477 
	C284.639893,229.322800 308.409607,207.704147 315.730042,178.980942 
	C322.788757,151.284622 311.438232,120.677902 288.471558,103.624329 
	C260.104767,82.560982 216.444473,84.681976 190.449432,114.975983 
z"/>
<path fill="#E23B00" opacity="1.000000" stroke="none" 
	d="
M179.788437,303.823792 
	C263.426025,284.667175 346.656708,265.599060 430.480072,246.395187 
	C430.726532,248.561325 431.020996,249.965500 431.025146,251.370529 
	C431.061951,263.867523 430.925201,276.366608 431.125488,288.860474 
	C431.182678,292.428436 430.066925,293.662659 426.500977,294.259460 
	C370.011292,303.713623 313.550842,313.341980 257.079987,322.908752 
	C212.592758,330.445374 168.100342,337.951202 123.610649,345.473145 
	C109.328857,347.887787 95.050278,350.321564 80.764046,352.709564 
	C79.482590,352.923737 78.155403,352.864319 76.190193,352.966095 
	C75.850235,345.113037 75.346069,337.517548 75.392159,329.925446 
	C75.398659,328.853882 77.950546,327.199005 79.559502,326.824371 
	C111.187225,319.460327 142.849716,312.245514 174.505539,305.002106 
	C176.128998,304.630615 177.756134,304.275208 179.788437,303.823792 
z"/>
<path fill="#E23B00" opacity="1.000000" stroke="none" 
	d="
M22.947212,141.037933 
	C22.794247,140.931702 22.729177,140.738495 22.664108,140.545288 
	C22.779535,140.549072 22.894964,140.552841 23.108849,140.665024 
	C23.207304,140.773422 23.035110,140.950943 22.947212,141.037933 
z"/>
<path fill="#FBB112" opacity="1.000000" stroke="none" 
	d="
M190.686401,114.709808 
	C216.444473,84.681976 260.104767,82.560982 288.471558,103.624329 
	C311.438232,120.677902 322.788757,151.284622 315.730042,178.980942 
	C308.409607,207.704147 284.639893,229.322800 256.190491,233.132477 
	C210.485413,239.252884 171.915848,204.843491 173.248459,158.747131 
	C173.724701,142.273132 179.635483,127.570358 190.686401,114.709808 
M203.344971,201.141296 
	C221.996582,219.854202 247.775421,224.769211 270.291870,213.905441 
	C292.861389,203.016068 305.800354,179.579681 302.861786,154.911362 
	C299.934235,130.335236 281.531921,110.263687 257.325775,105.244797 
	C232.809601,100.161606 207.611496,111.421783 195.462433,132.889404 
	C182.896103,155.094360 185.818359,181.876083 203.344971,201.141296 
z"/>
<path fill="#E23B00" opacity="1.000000" stroke="none" 
	d="
M203.099396,200.885406 
	C185.818359,181.876083 182.896103,155.094360 195.462433,132.889404 
	C207.611496,111.421783 232.809601,100.161606 257.325775,105.244797 
	C281.531921,110.263687 299.934235,130.335236 302.861786,154.911362 
	C305.800354,179.579681 292.861389,203.016068 270.291870,213.905441 
	C247.775421,224.769211 221.996582,219.854202 203.099396,200.885406 
M261.603302,170.906784 
	C259.023712,169.383179 256.550140,167.626831 253.839203,166.391556 
	C249.951340,164.619995 248.830963,161.887451 248.974670,157.694763 
	C249.293793,148.383118 248.944977,139.050461 249.124374,129.731308 
	C249.204376,125.575356 246.654358,125.737328 243.879822,125.815903 
	C241.142776,125.893425 238.040283,125.053757 238.096878,129.700439 
	C238.242859,141.684921 238.043091,153.674255 238.264832,165.656418 
	C238.294998,167.287155 239.538315,169.537292 240.911377,170.399353 
	C251.481216,177.035721 262.271149,183.320358 272.885559,189.887436 
	C277.254974,192.590805 277.802765,188.652496 279.470032,186.535172 
	C281.431610,184.044037 281.146515,182.271820 278.152435,180.640335 
	C272.748779,177.695877 267.530304,174.411575 261.603302,170.906784 
z"/>
<path fill="#FAB012" opacity="1.000000" stroke="none" 
	d="
M261.918884,171.088013 
	C267.530304,174.411575 272.748779,177.695877 278.152435,180.640335 
	C281.146515,182.271820 281.431610,184.044037 279.470032,186.535172 
	C277.802765,188.652496 277.254974,192.590805 272.885559,189.887436 
	C262.271149,183.320358 251.481216,177.035721 240.911377,170.399353 
	C239.538315,169.537292 238.294998,167.287155 238.264832,165.656418 
	C238.043091,153.674255 238.242859,141.684921 238.096878,129.700439 
	C238.040283,125.053757 241.142776,125.893425 243.879822,125.815903 
	C246.654358,125.737328 249.204376,125.575356 249.124374,129.731308 
	C248.944977,139.050461 249.293793,148.383118 248.974670,157.694763 
	C248.830963,161.887451 249.951340,164.619995 253.839203,166.391556 
	C256.550140,167.626831 259.023712,169.383179 261.918884,171.088013 
z"/>
</svg>